<svg width="24" height="24" viewBox="0 0 24 24" fill="none" xmlns="http://www.w3.org/2000/svg">
<path d="M9.8275 14.1156C8.99716 14.1156 7.40588 13.7467 6.09099 12.8701C4.88774 12.0679 1.01336 15.0001 0.0133702 20.2116C-0.329852 22.0001 6.01336 24.0001 10.0134 24.0001C14.0134 24.0001 20.3565 22.0001 20.0134 20.2116C19.0134 15.0001 14.7673 12.0679 13.5641 12.8701C12.2492 13.7467 10.6578 14.1156 9.8275 14.1156Z" fill="#94999F"/>
<rect x="21.2468" y="5.22729" width="3.88596" height="10.7193" transform="rotate(45 21.2468 5.22729)" fill="#94999F"/>
<mask id="mask0_239_3837" style="mask-type:alpha" maskUnits="userSpaceOnUse" x="0" y="12" width="21" height="12">
<path d="M9.8275 14.1156C8.99716 14.1156 7.40588 13.7467 6.09099 12.8701C4.88774 12.0679 1.01336 15.0001 0.0133702 20.2116C-0.329852 22.0001 6.01336 24.0001 10.0134 24.0001C14.0134 24.0001 20.3565 22.0001 20.0134 20.2116C19.0134 15.0001 14.7673 12.0679 13.5641 12.8701C12.2492 13.7467 10.6578 14.1156 9.8275 14.1156Z" fill="#909090"/>
</mask>
<g mask="url(#mask0_239_3837)">
<rect x="20.2559" y="6.2182" width="3.88596" height="23.4926" transform="rotate(45 20.2559 6.2182)" fill="#F2F2F2"/>
</g>
<circle cx="9.82748" cy="5.81234" r="5.81234" fill="#94999F"/>
</svg>
