<svg width="24" height="24" viewBox="0 0 24 24" fill="none" xmlns="http://www.w3.org/2000/svg">
<rect width="24" height="24" rx="12" fill="#F1F1F1"/>
<path d="M8.30078 18V5.20312H12.6865C14.1338 5.20312 15.2354 5.49316 15.9912 6.07324C16.7471 6.65332 17.125 7.51758 17.125 8.66602C17.125 9.25195 16.9668 9.7793 16.6504 10.248C16.334 10.7168 15.8711 11.0801 15.2617 11.3379C15.9531 11.5254 16.4863 11.8799 16.8613 12.4014C17.2422 12.917 17.4326 13.5381 17.4326 14.2646C17.4326 15.4658 17.0459 16.3887 16.2725 17.0332C15.5049 17.6777 14.4033 18 12.9678 18H8.30078ZM10.5244 12.2256V16.2246H12.9941C13.6914 16.2246 14.2363 16.0518 14.6289 15.7061C15.0215 15.3604 15.2178 14.8799 15.2178 14.2646C15.2178 12.9346 14.5381 12.2549 13.1787 12.2256H10.5244ZM10.5244 10.5908H12.7041C13.3955 10.5908 13.9346 10.4355 14.3213 10.125C14.7139 9.80859 14.9102 9.36328 14.9102 8.78906C14.9102 8.15625 14.7285 7.69922 14.3652 7.41797C14.0078 7.13672 13.4482 6.99609 12.6865 6.99609H10.5244V10.5908Z" fill="#F97150"/>
</svg>
