<svg width="24" height="24" viewBox="0 0 24 24" fill="none" xmlns="http://www.w3.org/2000/svg">
<path d="M18.5 5.5L16.0001 4C14.9997 6.5 11.5001 8.5 9.00006 8.5C6.99968 8.5 6.62493 9.5 6.99991 10.5C7.49991 11.8333 8.20042 14.1 9.00042 16.5C9.80042 18.9 11.6671 19.1667 12.5004 19L17.5003 17.5L19.9999 22L22.9999 21L19.5003 14L14.5003 15L13.0001 11C16.5001 9.5 18.1667 6.66667 18.5 5.5Z" fill="#94999F"/>
<circle cx="8.5" cy="3.5" r="3.5" fill="#94999F"/>
<path d="M3 6H0C0.5 7.5 4.5 19 4.5 19C7.5 25.5 14.3333 24 17.5 22.5L16 20C10.5 22.5 7.66667 19.5 7 17.5L3 6Z" fill="#94999F"/>
</svg>
