<svg width="16" height="16" viewBox="0 0 16 16" fill="none" xmlns="http://www.w3.org/2000/svg">
<path d="M5 5.78227L5.00003 8.33734V9.94057C5.00003 10.3709 5.45075 10.9406 5.88107 10.9406H6.03103V14.9275C6.03103 15.3579 6.38311 15.9869 6.81344 15.9869L9.15821 16C9.58853 16 10 15.4303 10 15V11H10.2176C10.648 11 11 10.4305 11 10V8.40994L11 5.7824C11 5.35208 10.6479 5 10.2176 5L5.80857 5C5.36521 4.99987 5 5.35208 5 5.78227Z" fill="#94999F"/>
<path d="M8 4C9.10457 4 10 3.10457 10 2C10 0.89543 9.10457 0 8 0C6.89543 0 6 0.89543 6 2C6 3.10457 6.89543 4 8 4Z" fill="#94999F"/>
</svg>
