<svg width="44" height="44" viewBox="0 0 44 44" fill="none" xmlns="http://www.w3.org/2000/svg">
<path d="M19.8334 20.7527L18.9668 20.2537L19.8334 20.7527ZM22 6.12496C21.4478 6.12496 21 6.57268 21 7.12496C21 7.67725 21.4478 8.12496 22 8.12496V6.12496ZM30.2641 9.63185L29.7086 10.4633L30.2641 9.63185ZM35.7427 16.3075L36.6666 15.9249L36.6666 15.9249L35.7427 16.3075ZM36.5892 24.9019L37.57 25.097L36.5892 24.9019ZM32.5182 32.5182L33.2254 33.2253L33.2254 33.2253L32.5182 32.5182ZM24.902 36.5891L25.0971 37.5699L24.902 36.5891ZM16.3076 35.7427L15.9249 36.6665L15.9249 36.6665L16.3076 35.7427ZM9.63192 30.2641L10.4634 29.7085H10.4634L9.63192 30.2641ZM8.12503 22C8.12503 21.4477 7.67732 21 7.12503 21C6.57275 21 6.12503 21.4477 6.12503 22H8.12503ZM23 12.375C23 11.8227 22.5523 11.375 22 11.375C21.4477 11.375 21 11.8227 21 12.375H23ZM21 19.375C21 19.9272 21.4477 20.375 22 20.375C22.5523 20.375 23 19.9272 23 19.375H21ZM24.8946 23.4804C24.5041 23.0898 23.871 23.0898 23.4804 23.4804C23.0899 23.8709 23.0899 24.504 23.4804 24.8946L24.8946 23.4804ZM28.2929 29.7071C28.6835 30.0976 29.3166 30.0976 29.7071 29.7071C30.0977 29.3165 30.0977 28.6834 29.7071 28.2929L28.2929 29.7071ZM41 22C41 32.4934 32.4934 41 22 41V43C33.598 43 43 33.598 43 22H41ZM22 41C11.5066 41 3 32.4934 3 22H1C1 33.598 10.402 43 22 43V41ZM3 22C3 11.5066 11.5066 3 22 3V1C10.402 1 1 10.402 1 22H3ZM22 3C32.4934 3 41 11.5066 41 22H43C43 10.402 33.598 1 22 1V3ZM20.7 21.2516C20.8985 20.9069 21.2258 20.6551 21.61 20.5516L21.09 18.6204C20.1937 18.8617 19.4299 19.4493 18.9668 20.2537L20.7 21.2516ZM21.61 20.5516C21.9941 20.4482 22.4036 20.5016 22.7484 20.7001L23.7463 18.9668C22.9418 18.5037 21.9863 18.3791 21.09 18.6204L21.61 20.5516ZM22.7484 20.7001C23.0932 20.8986 23.345 21.2259 23.4484 21.61L25.3796 21.09C25.1383 20.1937 24.5507 19.43 23.7463 18.9668L22.7484 20.7001ZM23.4484 21.61C23.5518 21.9942 23.4984 22.4037 23.2999 22.7485L25.0332 23.7463C25.4963 22.9419 25.621 21.9864 25.3796 21.09L23.4484 21.61ZM23.2999 22.7485C23.1014 23.0932 22.7741 23.345 22.39 23.4485L22.91 25.3797C23.8063 25.1383 24.5701 24.5508 25.0332 23.7463L23.2999 22.7485ZM22.39 23.4485C22.0058 23.5519 21.5963 23.4985 21.2516 23.3L20.2537 25.0333C21.0581 25.4964 22.0136 25.621 22.91 25.3797L22.39 23.4485ZM21.2516 23.3C20.9068 23.1015 20.655 22.7742 20.5516 22.39L18.6203 22.91C18.8617 23.8064 19.4492 24.5701 20.2537 25.0333L21.2516 23.3ZM20.5516 22.39C20.4481 22.0059 20.5015 21.5964 20.7 21.2516L18.9668 20.2537C18.5036 21.0582 18.379 22.0137 18.6203 22.91L20.5516 22.39ZM22 8.12496C24.7443 8.12496 27.4268 8.93872 29.7086 10.4633L30.8197 8.80038C28.2091 7.05601 25.1398 6.12496 22 6.12496V8.12496ZM29.7086 10.4633C31.9903 11.9879 33.7687 14.1549 34.8189 16.6902L36.6666 15.9249C35.4651 13.0241 33.4303 10.5447 30.8197 8.80038L29.7086 10.4633ZM34.8189 16.6902C35.869 19.2256 36.1438 22.0154 35.6084 24.7068L37.57 25.097C38.1825 22.0176 37.8682 18.8256 36.6666 15.9249L34.8189 16.6902ZM35.6084 24.7068C35.0731 27.3983 33.7516 29.8706 31.8111 31.8111L33.2254 33.2253C35.4455 31.0051 36.9575 28.1765 37.57 25.097L35.6084 24.7068ZM31.8111 31.8111C29.8707 33.7515 27.3984 35.073 24.7069 35.6084L25.0971 37.5699C28.1765 36.9574 31.0052 35.4454 33.2254 33.2253L31.8111 31.8111ZM24.7069 35.6084C22.0154 36.1437 19.2256 35.869 16.6903 34.8188L15.9249 36.6665C18.8257 37.8681 22.0176 38.1825 25.0971 37.5699L24.7069 35.6084ZM16.6903 34.8188C14.155 33.7686 11.988 31.9902 10.4634 29.7085L8.80045 30.8196C10.5448 33.4303 13.0242 35.465 15.9249 36.6665L16.6903 34.8188ZM10.4634 29.7085C8.93879 27.4268 8.12503 24.7442 8.12503 22H6.12503C6.12503 25.1397 7.05609 28.209 8.80045 30.8196L10.4634 29.7085ZM21 12.375V19.375H23V12.375H21ZM23.4804 24.8946L28.2929 29.7071L29.7071 28.2929L24.8946 23.4804L23.4804 24.8946Z" fill="url(#paint0_linear_305_156)"/>
<ellipse cx="22" cy="32.0625" rx="0.875" ry="1.3125" fill="#F97150"/>
<ellipse cx="11.9375" cy="22" rx="1.3125" ry="0.875" fill="#F97150"/>
<ellipse cx="32.0625" cy="22" rx="1.3125" ry="0.875" fill="#F97150"/>
<defs>
<linearGradient id="paint0_linear_305_156" x1="22" y1="2" x2="22" y2="42" gradientUnits="userSpaceOnUse">
<stop stop-color="#F97150"/>
<stop offset="1" stop-color="#FE976B"/>
</linearGradient>
</defs>
</svg>
