<svg width="44" height="44" viewBox="0 0 44 44" fill="none" xmlns="http://www.w3.org/2000/svg">
<path d="M5.69776 6.49836L5.39551 5.54513L5.39551 5.54513L5.69776 6.49836ZM21.6978 1.42519L21.3955 0.471956L21.3955 0.471957L21.6978 1.42519ZM22.3022 1.42519L22.6045 0.471957L22.6045 0.471956L22.3022 1.42519ZM38.3022 6.49836L38.6045 5.54513L38.6045 5.54513L38.3022 6.49836ZM22.2289 42.3171L21.9602 41.3539L21.9602 41.3539L22.2289 42.3171ZM21.7711 42.3171L22.0398 41.3539L22.0397 41.3539L21.7711 42.3171ZM10.6656 10.4148L10.3557 9.46404L10.3557 9.46404L10.6656 10.4148ZM21.69 6.82063L22 7.77138L22 7.77138L21.69 6.82063ZM22.31 6.82063L22.6199 5.86988L22.31 6.82063ZM33.3344 10.4148L33.6443 9.46404L33.6443 9.46404L33.3344 10.4148ZM21.7653 36.5076L21.4823 37.4668H21.4823L21.7653 36.5076ZM28.826 34.2347C29.2651 33.8998 29.3496 33.2723 29.0146 32.8332C28.6796 32.394 28.0521 32.3096 27.613 32.6446L28.826 34.2347ZM22.24 36.5061L22.5235 37.4651H22.5235L22.24 36.5061ZM31.4714 27.4187C31.2244 27.9127 31.4247 28.5134 31.9186 28.7603C32.4126 29.0073 33.0133 28.8071 33.2603 28.3131L31.4714 27.4187ZM6 7.45159L22 2.37842L21.3955 0.471957L5.39551 5.54513L6 7.45159ZM22 2.37842L38 7.45159L38.6045 5.54513L22.6045 0.471957L22 2.37842ZM38 7.45159V22.0611H40V7.45159H38ZM38 22.0611C38 29.2112 34.5185 33.868 30.7534 36.8408C26.9626 39.8338 22.9145 41.0877 21.9602 41.3539L22.4976 43.2803C23.5663 42.9822 27.9037 41.639 31.9927 38.4105C36.1074 35.1617 40 29.9726 40 22.0611H38ZM22.0397 41.3539C21.0855 41.0877 17.0374 39.8338 13.2466 36.8408C9.48151 33.868 6 29.2112 6 22.0611H4C4 29.9726 7.89256 35.1617 12.0073 38.4105C16.0963 41.639 20.4337 42.9822 21.5024 43.2803L22.0397 41.3539ZM6 22.0611V7.45159H4V22.0611H6ZM21.9602 41.3539C21.9648 41.3526 21.9793 41.3494 22 41.3494C22.0207 41.3494 22.0352 41.3526 22.0398 41.3539L21.5024 43.2803C21.8325 43.3724 22.1675 43.3724 22.4976 43.2803L21.9602 41.3539ZM38 7.45159H40C40 6.57989 39.4354 5.80859 38.6045 5.54513L38 7.45159ZM22 2.37842H22L22.6045 0.471956C22.2111 0.347239 21.7889 0.347239 21.3955 0.471956L22 2.37842ZM5.39551 5.54513C4.56458 5.80859 4 6.57989 4 7.45159H6H6L5.39551 5.54513ZM10.9756 11.3655L22 7.77138L21.3801 5.86988L10.3557 9.46404L10.9756 11.3655ZM22 7.77138L33.0244 11.3655L33.6443 9.46404L22.6199 5.86988L22 7.77138ZM33.0244 11.3619V21.7972H35.0244V11.3619H33.0244ZM22.0483 35.5485C21.2695 35.3188 18.4681 34.3855 15.879 32.2408C13.3159 30.1177 10.9756 26.8271 10.9756 21.7972H8.97561C8.97561 27.5518 11.691 31.3688 14.6032 33.781C17.4892 36.1716 20.5827 37.2014 21.4823 37.4668L22.0483 35.5485ZM10.9756 21.7972V11.3655H8.97561V21.7972H10.9756ZM27.613 32.6446C25.1791 34.5012 22.6881 35.3308 21.9566 35.5471L22.5235 37.4651C23.3734 37.2138 26.1217 36.2977 28.826 34.2347L27.613 32.6446ZM33.0244 21.7972C33.0244 23.0024 32.6545 24.392 32.2523 25.5302C32.0549 26.0887 31.8573 26.566 31.7094 26.9025C31.6357 27.0704 31.5747 27.2025 31.5328 27.2911C31.5119 27.3355 31.4958 27.3689 31.4853 27.3905C31.48 27.4013 31.4762 27.4091 31.4738 27.4138C31.4727 27.4162 31.4719 27.4178 31.4715 27.4186C31.4713 27.419 31.4712 27.4193 31.4711 27.4193C31.4711 27.4193 31.4712 27.4192 31.4712 27.4191C31.4712 27.4191 31.4713 27.419 31.4713 27.419C31.4714 27.4188 31.4714 27.4187 32.3659 27.8659C33.2603 28.3131 33.2604 28.313 33.2604 28.3128C33.2605 28.3127 33.2606 28.3125 33.2606 28.3124C33.2608 28.3121 33.261 28.3118 33.2612 28.3114C33.2616 28.3106 33.2621 28.3096 33.2626 28.3084C33.2638 28.306 33.2654 28.3028 33.2674 28.2988C33.2713 28.2908 33.2768 28.2797 33.2837 28.2655C33.2975 28.2372 33.317 28.1966 33.3414 28.1449C33.3903 28.0414 33.4588 27.8928 33.5406 27.7068C33.7037 27.3354 33.9207 26.8113 34.138 26.1966C34.565 24.9884 35.0244 23.3437 35.0244 21.7972H33.0244ZM21.4823 37.4668C21.8311 37.5697 22.1869 37.5646 22.5235 37.4651L21.9566 35.5471C21.9632 35.5451 21.9777 35.5419 21.9978 35.5418C22.0182 35.5418 22.0358 35.5449 22.0482 35.5485L21.4823 37.4668ZM33.0244 11.3655C33.0263 11.3661 33.0267 11.3666 33.0264 11.3664C33.0264 11.3663 33.0262 11.3662 33.0259 11.3658C33.0256 11.3655 33.0252 11.3647 33.0248 11.3636C33.0244 11.3622 33.0244 11.3614 33.0244 11.3619H35.0244C35.0244 10.4919 34.4633 9.73106 33.6443 9.46404L33.0244 11.3655ZM22 7.77138L22 7.77138L22.6199 5.86988C22.2171 5.73855 21.7829 5.73855 21.3801 5.86988L22 7.77138ZM10.3557 9.46404C9.5326 9.73238 8.97561 10.4998 8.97561 11.3655H10.9756L10.3557 9.46404Z" fill="url(#paint0_linear_305_174)"/>
<path d="M20.4637 26.3293L16.4876 22.3533C16.0971 21.9628 16.0971 21.3296 16.4876 20.9391L17.9759 19.4509C18.3664 19.0603 18.9995 19.0603 19.3901 19.4509L20.4637 20.5244C20.8542 20.915 21.4873 20.915 21.8779 20.5244L25.8539 16.5484C26.2444 16.1579 26.8776 16.1579 27.2681 16.5484L28.7563 18.0366C29.1469 18.4272 29.1469 19.0603 28.7563 19.4509L21.8779 26.3293C21.4873 26.7198 20.8542 26.7198 20.4637 26.3293Z" stroke="#F97150" stroke-width="2"/>
<circle cx="31" cy="31" r="1" fill="#FE9167"/>
<defs>
<linearGradient id="paint0_linear_305_174" x1="22" y1="1.37842" x2="22" y2="42.3494" gradientUnits="userSpaceOnUse">
<stop stop-color="#F97150"/>
<stop offset="1" stop-color="#FF996D"/>
</linearGradient>
</defs>
</svg>
