<svg width="44" height="44" viewBox="0 0 44 44" fill="none" xmlns="http://www.w3.org/2000/svg">
<path d="M20.2562 8.36092C20.6467 7.9704 20.6467 7.33723 20.2562 6.94671C19.8657 6.55619 19.2325 6.55619 18.842 6.94671L20.2562 8.36092ZM2.82843 24.3745L2.12133 23.6674L2.82843 24.3745ZM2.82843 30.0313L2.12133 30.7384H2.12133L2.82843 30.0313ZM13.9279 41.1308L13.2208 41.8379L13.9279 41.1308ZM19.5848 41.1308L18.8777 40.4237L19.5848 41.1308ZM40.7269 18.9453L41.7246 19.0141V19.0141L40.7269 18.9453ZM41.5698 6.7233L40.5722 6.6545L41.5698 6.7233ZM37.2416 2.46238L37.326 3.45881L37.2416 2.46238ZM24.6756 3.52729L24.7601 4.52372L24.6756 3.52729ZM22.8076 4.39525L22.1005 3.68815V3.68815L22.8076 4.39525ZM21.6347 4.15399C21.2442 4.54451 21.2442 5.17768 21.6347 5.5682C22.0252 5.95872 22.6584 5.95872 23.0489 5.5682L21.6347 4.15399ZM12.8079 10.8004C13.346 10.9246 13.8829 10.589 14.0071 10.0508C14.1313 9.51269 13.7957 8.97577 13.2576 8.85158L12.8079 10.8004ZM8.06789 6.72295L7.14875 7.11687V7.11687L8.06789 6.72295ZM22.2928 7.96958L22.0157 8.93042L22.2928 7.96958ZM32.2225 12.3138L31.3904 12.8685L32.2225 12.3138ZM30.1001 12.6489C29.5643 12.515 29.0214 12.8407 28.8874 13.3765C28.7535 13.9123 29.0792 14.4552 29.615 14.5892L30.1001 12.6489ZM31.5009 7.24361C30.9505 7.19804 30.4674 7.60729 30.4218 8.15769C30.3763 8.70809 30.7855 9.19122 31.3359 9.23679L31.5009 7.24361ZM26.3257 12.8778L27.3256 12.8887L26.3257 12.8778ZM28.1352 10.6172C28.4798 10.1856 28.4093 9.5564 27.9777 9.21178C27.5462 8.86715 26.9169 8.93764 26.5723 9.36921L28.1352 10.6172ZM38.2964 29.138C38.5725 28.6598 38.4086 28.0482 37.9303 27.772C37.452 27.4959 36.8405 27.6598 36.5643 28.138L38.2964 29.138ZM30.6536 40.3756L31.5197 40.8756L30.6536 40.3756ZM25.1895 41.8397L25.6895 40.9737L25.1895 41.8397ZM24.9732 40.5601C24.4949 40.284 23.8833 40.4478 23.6072 40.9261C23.331 41.4044 23.4949 42.016 23.9732 42.2921L24.9732 40.5601ZM18.842 6.94671L2.12133 23.6674L3.53554 25.0816L20.2562 8.36092L18.842 6.94671ZM2.12133 30.7384L13.2208 41.8379L14.635 40.4237L3.53554 29.3242L2.12133 30.7384ZM20.2919 41.8379L40.5625 21.5673L39.1483 20.1531L18.8777 40.4237L20.2919 41.8379ZM41.7246 19.0141L42.5675 6.7921L40.5722 6.6545L39.7293 18.8765L41.7246 19.0141ZM37.1571 1.46595L24.5912 2.53086L24.7601 4.52372L37.326 3.45881L37.1571 1.46595ZM22.1005 3.68815L21.6347 4.15399L23.0489 5.5682L23.5147 5.10236L22.1005 3.68815ZM24.5912 2.53086C23.6504 2.61059 22.7682 3.02053 22.1005 3.68815L23.5147 5.10236C23.8486 4.76855 24.2897 4.56358 24.7601 4.52372L24.5912 2.53086ZM42.5675 6.7921C42.7784 3.73343 40.2121 1.20705 37.1571 1.46595L37.326 3.45881C39.159 3.30347 40.6988 4.81929 40.5722 6.6545L42.5675 6.7921ZM40.5625 21.5673C41.2454 20.8844 41.6581 19.9776 41.7246 19.0141L39.7293 18.8765C39.6961 19.3582 39.4897 19.8117 39.1483 20.1531L40.5625 21.5673ZM13.2208 41.8379C15.1734 43.7905 18.3393 43.7905 20.2919 41.8379L18.8777 40.4237C17.7061 41.5953 15.8066 41.5953 14.635 40.4237L13.2208 41.8379ZM2.12133 23.6674C0.168706 25.62 0.168704 28.7858 2.12133 30.7384L3.53554 29.3242C2.36397 28.1526 2.36397 26.2531 3.53554 25.0816L2.12133 23.6674ZM13.2576 8.85158C12.6552 8.71257 11.6846 8.39865 10.7939 7.92628C9.86549 7.43392 9.21989 6.87235 8.98704 6.32903L7.14875 7.11687C7.66062 8.31124 8.82512 9.14603 9.85681 9.69318C10.9262 10.2603 12.0656 10.6291 12.8079 10.8004L13.2576 8.85158ZM8.98704 6.32903C8.98706 6.32909 8.98946 6.33467 8.99261 6.34552C8.99577 6.35641 8.99985 6.3732 9.00289 6.39536C9.00917 6.44118 9.01029 6.5054 8.99364 6.58012C8.9568 6.74548 8.8625 6.84345 8.81673 6.87928C8.78018 6.90789 8.87481 6.83263 9.28581 6.78576C10.0436 6.69934 11.2644 6.76829 12.767 6.96543C15.736 7.35495 19.4752 8.19776 22.0157 8.93042L22.5699 7.00874C19.9527 6.25396 16.114 5.3874 13.0272 4.98242C11.502 4.78232 10.0755 4.68275 9.05921 4.79864C8.5832 4.85292 8.00916 4.97152 7.58387 5.30446C7.34373 5.49245 7.12505 5.77021 7.0415 6.14518C6.96021 6.51007 7.03351 6.84797 7.14875 7.11687L8.98704 6.32903ZM22.0157 8.93042C22.9618 9.20327 25.0981 9.81397 27.1478 10.5836C28.1741 10.969 29.1534 11.3849 29.9394 11.807C30.7691 12.2526 31.2286 12.6257 31.3904 12.8685L33.0546 11.7591C32.5958 11.071 31.7395 10.5036 30.8856 10.0451C29.9881 9.56305 28.9161 9.11125 27.8509 8.71127C25.7175 7.91022 23.5095 7.27971 22.5699 7.00874L22.0157 8.93042ZM31.3904 12.8685C31.5462 13.1021 31.366 12.9683 31.5048 12.7066C31.5951 12.5364 31.6945 12.5741 31.4609 12.6374C31.274 12.6881 31.0104 12.715 30.7267 12.7119C30.4418 12.7088 30.2103 12.6765 30.1001 12.6489L29.615 14.5892C30.1655 14.7268 31.181 14.7856 31.9845 14.5677C32.3628 14.4651 32.9603 14.2307 33.2716 13.6438C33.6315 12.9655 33.3953 12.2702 33.0546 11.7591L31.3904 12.8685ZM31.3359 9.23679C32.1594 9.30496 32.9364 9.64646 33.5435 10.207L34.9003 8.73758C33.9655 7.87444 32.7689 7.34858 31.5009 7.24361L31.3359 9.23679ZM33.5435 10.207C34.1506 10.7675 34.5529 11.5149 34.6864 12.3304L36.6601 12.0072C36.4546 10.7516 35.8351 9.60072 34.9003 8.73758L33.5435 10.207ZM34.6864 12.3304C34.8199 13.1458 34.677 13.9825 34.2804 14.7074L36.0349 15.6674C36.6456 14.5512 36.8657 13.2629 36.6601 12.0072L34.6864 12.3304ZM34.2804 14.7074C33.8837 15.4322 33.2562 16.0037 32.4974 16.3309L33.2895 18.1674C34.4578 17.6636 35.4242 16.7836 36.0349 15.6674L34.2804 14.7074ZM32.4974 16.3309C31.7387 16.6582 30.8923 16.7224 30.0929 16.5133L29.5869 18.4482C30.8179 18.7702 32.1211 18.6713 33.2895 18.1674L32.4974 16.3309ZM30.0929 16.5133C29.2935 16.3043 28.5869 15.834 28.0855 15.1772L26.4959 16.3909C27.268 17.4022 28.356 18.1263 29.5869 18.4482L30.0929 16.5133ZM28.0855 15.1772C27.5841 14.5204 27.3166 13.7149 27.3256 12.8887L25.3257 12.8669C25.3119 14.1392 25.7237 15.3796 26.4959 16.3909L28.0855 15.1772ZM27.3256 12.8887C27.3346 12.0624 27.6196 11.2629 28.1352 10.6172L26.5723 9.36921C25.7784 10.3635 25.3396 11.5946 25.3257 12.8669L27.3256 12.8887ZM36.5643 28.138L29.7876 39.8756L31.5197 40.8756L38.2964 29.138L36.5643 28.138ZM25.6895 40.9737L24.9732 40.5601L23.9732 42.2921L24.6895 42.7057L25.6895 40.9737ZM29.7876 39.8756C28.9592 41.3105 27.1244 41.8021 25.6895 40.9737L24.6895 42.7057C27.081 44.0865 30.139 43.2671 31.5197 40.8756L29.7876 39.8756Z" fill="url(#paint0_linear_305_150)"/>
<path d="M16.4112 31.4666C16.7829 31.0949 16.971 30.6707 16.9753 30.194C16.9841 29.7129 16.8092 29.1006 16.4505 28.3571C16.0963 27.6093 15.8492 26.9992 15.7092 26.5269C15.2369 24.9612 15.5365 23.6426 16.608 22.5711C17.334 21.8452 18.1518 21.4691 19.0614 21.4428C19.9711 21.4166 20.848 21.738 21.692 22.4071L23.1221 20.9771L24.1717 22.0267L22.7285 23.4699C23.3802 24.3402 23.6448 25.252 23.5223 26.2054C23.4042 27.1545 22.9166 28.0576 22.0594 28.9147L20.4719 27.3272C21.0229 26.7762 21.3312 26.2185 21.3968 25.6544C21.4712 25.0902 21.2962 24.596 20.872 24.1718C20.4522 23.752 20.0105 23.5377 19.5469 23.5289C19.0833 23.5202 18.6394 23.7279 18.2152 24.1521C17.8347 24.5326 17.6445 24.9546 17.6445 25.4182C17.6532 25.8818 17.8347 26.4963 18.189 27.2616C18.5432 28.0269 18.7925 28.6567 18.9368 29.1509C19.0811 29.6451 19.1489 30.1152 19.1402 30.5613C19.1358 31.003 19.0461 31.4294 18.8712 31.8405C18.6963 32.2516 18.412 32.654 18.0184 33.0476C17.2793 33.7867 16.4527 34.1584 15.5387 34.1628C14.629 34.1715 13.7281 33.8129 12.8359 33.0869L11.5567 34.3662L10.5137 33.3231L11.7863 32.0505C11.0166 31.0883 10.6602 30.1109 10.717 29.1181C10.7783 28.1297 11.2418 27.2026 12.1078 26.3366L13.7019 27.9307C13.1508 28.4818 12.8622 29.0459 12.8359 29.6232C12.8141 30.2049 13.0568 30.7494 13.5641 31.2567C14.0627 31.7552 14.5612 32.0133 15.0598 32.0308C15.5627 32.0526 16.0132 31.8646 16.4112 31.4666Z" fill="url(#paint1_linear_305_150)"/>
<defs>
<linearGradient id="paint0_linear_305_150" x1="21.6182" y1="2.44775" x2="21.6182" y2="42.3763" gradientUnits="userSpaceOnUse">
<stop stop-color="#F97150"/>
<stop offset="1" stop-color="#FE976B"/>
</linearGradient>
<linearGradient id="paint1_linear_305_150" x1="17.3427" y1="20.9771" x2="17.3427" y2="34.3662" gradientUnits="userSpaceOnUse">
<stop stop-color="#F97150"/>
<stop offset="1" stop-color="#FE966B"/>
</linearGradient>
</defs>
</svg>
