<svg width="44" height="44" viewBox="0 0 44 44" fill="none" xmlns="http://www.w3.org/2000/svg">
<path d="M1 25C1 25.5523 1.44772 26 2 26C2.55228 26 3 25.5523 3 25H1ZM3 33C3 32.4477 2.55228 32 2 32C1.44772 32 1 32.4477 1 33H3ZM6 8L36 8V6L6 6V8ZM39 11V36H41V11H39ZM36 39H6V41H36V39ZM3 25C3 24.9906 3 24.9812 3 24.9718C3 24.9623 3 24.9529 3 24.9435C3 24.9341 3 24.9247 3 24.9152C3 24.9058 3 24.8964 3 24.8869C3 24.8775 3 24.8681 3 24.8586C3 24.8492 3 24.8398 3 24.8303C3 24.8209 3 24.8114 3 24.802C3 24.7925 3 24.7831 3 24.7736C3 24.7642 3 24.7547 3 24.7453C3 24.7358 3 24.7263 3 24.7169C3 24.7074 3 24.698 3 24.6885C3 24.679 3 24.6695 3 24.6601C3 24.6506 3 24.6411 3 24.6316C3 24.6222 3 24.6127 3 24.6032C3 24.5937 3 24.5842 3 24.5747C3 24.5653 3 24.5558 3 24.5463C3 24.5368 3 24.5273 3 24.5178C3 24.5083 3 24.4988 3 24.4893C3 24.4798 3 24.4703 3 24.4608C3 24.4513 3 24.4418 3 24.4322C3 24.4227 3 24.4132 3 24.4037C3 24.3942 3 24.3847 3 24.3751C3 24.3656 3 24.3561 3 24.3466C3 24.337 3 24.3275 3 24.318C3 24.3084 3 24.2989 3 24.2894C3 24.2798 3 24.2703 3 24.2608C3 24.2512 3 24.2417 3 24.2321C3 24.2226 3 24.213 3 24.2035C3 24.1939 3 24.1844 3 24.1748C3 24.1653 3 24.1557 3 24.1462C3 24.1366 3 24.1271 3 24.1175C3 24.1079 3 24.0984 3 24.0888C3 24.0792 3 24.0697 3 24.0601C3 24.0505 3 24.041 3 24.0314C3 24.0218 3 24.0122 3 24.0027C3 23.9931 3 23.9835 3 23.9739C3 23.9643 3 23.9547 3 23.9452C3 23.9356 3 23.926 3 23.9164C3 23.9068 3 23.8972 3 23.8876C3 23.878 3 23.8684 3 23.8588C3 23.8492 3 23.8396 3 23.83C3 23.8204 3 23.8108 3 23.8012C3 23.7916 3 23.782 3 23.7724C3 23.7628 3 23.7531 3 23.7435C3 23.7339 3 23.7243 3 23.7147C3 23.7051 3 23.6954 3 23.6858C3 23.6762 3 23.6666 3 23.657C3 23.6473 3 23.6377 3 23.6281C3 23.6184 3 23.6088 3 23.5992C3 23.5895 3 23.5799 3 23.5703C3 23.5606 3 23.551 3 23.5414C3 23.5317 3 23.5221 3 23.5124C3 23.5028 3 23.4931 3 23.4835C3 23.4739 3 23.4642 3 23.4546C3 23.4449 3 23.4353 3 23.4256C3 23.4159 3 23.4063 3 23.3966C3 23.387 3 23.3773 3 23.3677C3 23.358 3 23.3483 3 23.3387C3 23.329 3 23.3193 3 23.3097C3 23.3 3 23.2903 3 23.2807C3 23.271 3 23.2613 3 23.2517C3 23.242 3 23.2323 3 23.2226C3 23.213 3 23.2033 3 23.1936C3 23.1839 3 23.1742 3 23.1646C3 23.1549 3 23.1452 3 23.1355C3 23.1258 3 23.1161 3 23.1064C3 23.0968 3 23.0871 3 23.0774C3 23.0677 3 23.058 3 23.0483C3 23.0386 3 23.0289 3 23.0192C3 23.0095 3 22.9998 3 22.9901C3 22.9804 3 22.9707 3 22.961C3 22.9513 3 22.9416 3 22.9319C3 22.9222 3 22.9125 3 22.9028C3 22.8931 3 22.8834 3 22.8737C3 22.8639 3 22.8542 3 22.8445C3 22.8348 3 22.8251 3 22.8154C3 22.8057 3 22.7959 3 22.7862C3 22.7765 3 22.7668 3 22.7571C3 22.7473 3 22.7376 3 22.7279C3 22.7182 3 22.7085 3 22.6987C3 22.689 3 22.6793 3 22.6696C3 22.6598 3 22.6501 3 22.6404C3 22.6306 3 22.6209 3 22.6112C3 22.6014 3 22.5917 3 22.582C3 22.5722 3 22.5625 3 22.5528C3 22.543 3 22.5333 3 22.5235C3 22.5138 3 22.5041 3 22.4943C3 22.4846 3 22.4748 3 22.4651C3 22.4554 3 22.4456 3 22.4359C3 22.4261 3 22.4164 3 22.4066C3 22.3969 3 22.3871 3 22.3774C3 22.3676 3 22.3579 3 22.3481C3 22.3384 3 22.3286 3 22.3189C3 22.3091 3 22.2994 3 22.2896C3 22.2799 3 22.2701 3 22.2604C3 22.2506 3 22.2408 3 22.2311C3 22.2213 3 22.2116 3 22.2018C3 22.192 3 22.1823 3 22.1725C3 22.1628 3 22.153 3 22.1432C3 22.1335 3 22.1237 3 22.1139C3 22.1042 3 22.0944 3 22.0846C3 22.0749 3 22.0651 3 22.0553C3 22.0456 3 22.0358 3 22.026C3 22.0163 3 22.0065 3 21.9967C3 21.9869 3 21.9772 3 21.9674C3 21.9576 3 21.9479 3 21.9381C3 21.9283 3 21.9185 3 21.9088C3 21.899 3 21.8892 3 21.8794C3 21.8696 3 21.8599 3 21.8501C3 21.8403 3 21.8305 3 21.8208C3 21.811 3 21.8012 3 21.7914C3 21.7816 3 21.7719 3 21.7621C3 21.7523 3 21.7425 3 21.7327C3 21.7229 3 21.7132 3 21.7034C3 21.6936 3 21.6838 3 21.674C3 21.6642 3 21.6545 3 21.6447C3 21.6349 3 21.6251 3 21.6153C3 21.6055 3 21.5957 3 21.5859C3 21.5762 3 21.5664 3 21.5566C3 21.5468 3 21.537 3 21.5272C3 21.5174 3 21.5076 3 21.4978C3 21.4881 3 21.4783 3 21.4685C3 21.4587 3 21.4489 3 21.4391C3 21.4293 3 21.4195 3 21.4097C3 21.3999 3 21.3901 3 21.3803C3 21.3706 3 21.3608 3 21.351C3 21.3412 3 21.3314 3 21.3216C3 21.3118 3 21.302 3 21.2922C3 21.2824 3 21.2726 3 21.2628C3 21.253 3 21.2432 3 21.2334C3 21.2236 3 21.2138 3 21.204C3 21.1942 3 21.1844 3 21.1746C3 21.1649 3 21.1551 3 21.1453C3 21.1355 3 21.1257 3 21.1159C3 21.1061 3 21.0963 3 21.0865C3 21.0767 3 21.0669 3 21.0571C3 21.0473 3 21.0375 3 21.0277C3 21.0179 3 21.0081 3 20.9983C3 20.9885 3 20.9787 3 20.9689C3 20.9591 3 20.9493 3 20.9395C3 20.9297 3 20.9199 3 20.9101C3 20.9003 3 20.8905 3 20.8807C3 20.8709 3 20.8611 3 20.8513C3 20.8415 3 20.8317 3 20.8219C3 20.8121 3 20.8023 3 20.7925C3 20.7827 3 20.7729 3 20.7631C3 20.7533 3 20.7435 3 20.7337C3 20.7239 3 20.7142 3 20.7044C3 20.6946 3 20.6848 3 20.675C3 20.6652 3 20.6554 3 20.6456C3 20.6358 3 20.626 3 20.6162C3 20.6064 3 20.5966 3 20.5868C3 20.577 3 20.5672 3 20.5574C3 20.5476 3 20.5378 3 20.528C3 20.5182 3 20.5084 3 20.4986C3 20.4888 3 20.479 3 20.4693C3 20.4595 3 20.4497 3 20.4399C3 20.4301 3 20.4203 3 20.4105C3 20.4007 3 20.3909 3 20.3811C3 20.3713 3 20.3615 3 20.3517C3 20.342 3 20.3322 3 20.3224C3 20.3126 3 20.3028 3 20.293C3 20.2832 3 20.2734 3 20.2636C3 20.2538 3 20.2441 3 20.2343C3 20.2245 3 20.2147 3 20.2049C3 20.1951 3 20.1853 3 20.1755C3 20.1658 3 20.156 3 20.1462C3 20.1364 3 20.1266 3 20.1168C3 20.107 3 20.0973 3 20.0875C3 20.0777 3 20.0679 3 20.0581C3 20.0484 3 20.0386 3 20.0288C3 20.019 3 20.0092 3 19.9994C3 19.9897 3 19.9799 3 19.9701C3 19.9603 3 19.9506 3 19.9408C3 19.931 3 19.9212 3 19.9114C3 19.9017 3 19.8919 3 19.8821C3 19.8723 3 19.8626 3 19.8528C3 19.843 3 19.8333 3 19.8235C3 19.8137 3 19.8039 3 19.7942C3 19.7844 3 19.7746 3 19.7649C3 19.7551 3 19.7453 3 19.7356C3 19.7258 3 19.716 3 19.7063C3 19.6965 3 19.6867 3 19.677C3 19.6672 3 19.6574 3 19.6477C3 19.6379 3 19.6281 3 19.6184C3 19.6086 3 19.5989 3 19.5891C3 19.5793 3 19.5696 3 19.5598C3 19.5501 3 19.5403 3 19.5306C3 19.5208 3 19.511 3 19.5013C3 19.4915 3 19.4818 3 19.472C3 19.4623 3 19.4525 3 19.4428C3 19.433 3 19.4233 3 19.4135C3 19.4038 3 19.394 3 19.3843C3 19.3746 3 19.3648 3 19.3551C3 19.3453 3 19.3356 3 19.3258C3 19.3161 3 19.3064 3 19.2966C3 19.2869 3 19.2771 3 19.2674C3 19.2577 3 19.2479 3 19.2382C3 19.2285 3 19.2187 3 19.209C3 19.1993 3 19.1895 3 19.1798C3 19.1701 3 19.1603 3 19.1506C3 19.1409 3 19.1311 3 19.1214C3 19.1117 3 19.102 3 19.0922C3 19.0825 3 19.0728 3 19.0631C3 19.0534 3 19.0436 3 19.0339C3 19.0242 3 19.0145 3 19.0048C3 18.995 3 18.9853 3 18.9756C3 18.9659 3 18.9562 3 18.9465C3 18.9368 3 18.9271 3 18.9173C3 18.9076 3 18.8979 3 18.8882C3 18.8785 3 18.8688 3 18.8591C3 18.8494 3 18.8397 3 18.83C3 18.8203 3 18.8106 3 18.8009C3 18.7912 3 18.7815 3 18.7718C3 18.7621 3 18.7524 3 18.7427C3 18.733 3 18.7234 3 18.7137C3 18.704 3 18.6943 3 18.6846C3 18.6749 3 18.6652 3 18.6555C3 18.6459 3 18.6362 3 18.6265C3 18.6168 3 18.6071 3 18.5975C3 18.5878 3 18.5781 3 18.5684C3 18.5588 3 18.5491 3 18.5394C3 18.5297 3 18.5201 3 18.5104C3 18.5007 3 18.4911 3 18.4814C3 18.4717 3 18.4621 3 18.4524C3 18.4428 3 18.4331 3 18.4234C3 18.4138 3 18.4041 3 18.3945C3 18.3848 3 18.3752 3 18.3655C3 18.3559 3 18.3462 3 18.3366C3 18.3269 3 18.3173 3 18.3076C3 18.298 3 18.2883 3 18.2787C3 18.2691 3 18.2594 3 18.2498C3 18.2401 3 18.2305 3 18.2209C3 18.2112 3 18.2016 3 18.192C3 18.1823 3 18.1727 3 18.1631C3 18.1535 3 18.1438 3 18.1342C3 18.1246 3 18.115 3 18.1053C3 18.0957 3 18.0861 3 18.0765C3 18.0669 3 18.0573 3 18.0477C3 18.038 3 18.0284 3 18.0188C3 18.0092 3 17.9996 3 17.99C3 17.9804 3 17.9708 3 17.9612C3 17.9516 3 17.942 3 17.9324C3 17.9228 3 17.9132 3 17.9036C3 17.894 3 17.8844 3 17.8748C3 17.8653 3 17.8557 3 17.8461C3 17.8365 3 17.8269 3 17.8173C3 17.8078 3 17.7982 3 17.7886C3 17.779 3 17.7695 3 17.7599C3 17.7503 3 17.7407 3 17.7312C3 17.7216 3 17.712 3 17.7025C3 17.6929 3 17.6834 3 17.6738C3 17.6642 3 17.6547 3 17.6451C3 17.6356 3 17.626 3 17.6165C3 17.6069 3 17.5974 3 17.5878C3 17.5783 3 17.5687 3 17.5592C3 17.5496 3 17.5401 3 17.5306C3 17.521 3 17.5115 3 17.502C3 17.4924 3 17.4829 3 17.4734C3 17.4638 3 17.4543 3 17.4448C3 17.4353 3 17.4257 3 17.4162C3 17.4067 3 17.3972 3 17.3877C3 17.3782 3 17.3687 3 17.3591C3 17.3496 3 17.3401 3 17.3306C3 17.3211 3 17.3116 3 17.3021C3 17.2926 3 17.2831 3 17.2736C3 17.2641 3 17.2546 3 17.2451C3 17.2357 3 17.2262 3 17.2167C3 17.2072 3 17.1977 3 17.1882C3 17.1788 3 17.1693 3 17.1598C3 17.1503 3 17.1409 3 17.1314C3 17.1219 3 17.1124 3 17.103C3 17.0935 3 17.0841 3 17.0746C3 17.0651 3 17.0557 3 17.0462C3 17.0368 3 17.0273 3 17.0179C3 17.0084 3 16.999 3 16.9895C3 16.9801 3 16.9706 3 16.9612C3 16.9518 3 16.9423 3 16.9329C3 16.9235 3 16.914 3 16.9046C3 16.8952 3 16.8857 3 16.8763C3 16.8669 3 16.8575 3 16.8481C3 16.8386 3 16.8292 3 16.8198C3 16.8104 3 16.801 3 16.7916C3 16.7822 3 16.7728 3 16.7634C3 16.754 3 16.7446 3 16.7352C3 16.7258 3 16.7164 3 16.707C3 16.6976 3 16.6882 3 16.6788C3 16.6694 3 16.6601 3 16.6507C3 16.6413 3 16.6319 3 16.6226C3 16.6132 3 16.6038 3 16.5945C3 16.5851 3 16.5757 3 16.5664C3 16.557 3 16.5476 3 16.5383C3 16.5289 3 16.5196 3 16.5102C3 16.5009 3 16.4915 3 16.4822C3 16.4728 3 16.4635 3 16.4542C3 16.4448 3 16.4355 3 16.4262C3 16.4168 3 16.4075 3 16.3982C3 16.3888 3 16.3795 3 16.3702C3 16.3609 3 16.3516 3 16.3423C3 16.3329 3 16.3236 3 16.3143C3 16.305 3 16.2957 3 16.2864C3 16.2771 3 16.2678 3 16.2585C3 16.2492 3 16.2399 3 16.2306C3 16.2214 3 16.2121 3 16.2028C3 16.1935 3 16.1842 3 16.1749C3 16.1657 3 16.1564 3 16.1471C3 16.1379 3 16.1286 3 16.1193C3 16.1101 3 16.1008 3 16.0916C3 16.0823 3 16.073 3 16.0638C3 16.0545 3 16.0453 3 16.0361C3 16.0268 3 16.0176 3 16.0083C3 15.9991 3 15.9899 3 15.9806C3 15.9714 3 15.9622 3 15.9529C3 15.9437 3 15.9345 3 15.9253C3 15.9161 3 15.9069 3 15.8976C3 15.8884 3 15.8792 3 15.87C3 15.8608 3 15.8516 3 15.8424C3 15.8332 3 15.824 3 15.8148C3 15.8057 3 15.7965 3 15.7873C3 15.7781 3 15.7689 3 15.7597C3 15.7506 3 15.7414 3 15.7322C3 15.7231 3 15.7139 3 15.7047C3 15.6956 3 15.6864 3 15.6773C3 15.6681 3 15.659 3 15.6498C3 15.6407 3 15.6315 3 15.6224C3 15.6132 3 15.6041 3 15.595C3 15.5858 3 15.5767 3 15.5676C3 15.5584 3 15.5493 3 15.5402C3 15.5311 3 15.522 3 15.5129C3 15.5037 3 15.4946 3 15.4855C3 15.4764 3 15.4673 3 15.4582C3 15.4491 3 15.44 3 15.431C3 15.4219 3 15.4128 3 15.4037C3 15.3946 3 15.3855 3 15.3765C3 15.3674 3 15.3583 3 15.3492C3 15.3402 3 15.3311 3 15.3221C3 15.313 3 15.3039 3 15.2949C3 15.2858 3 15.2768 3 15.2677C3 15.2587 3 15.2497 3 15.2406C3 15.2316 3 15.2226 3 15.2135C3 15.2045 3 15.1955 3 15.1865C3 15.1774 3 15.1684 3 15.1594C3 15.1504 3 15.1414 3 15.1324C3 15.1234 3 15.1144 3 15.1054C3 15.0964 3 15.0874 3 15.0784C3 15.0694 3 15.0604 3 15.0514C3 15.0424 3 15.0335 3 15.0245C3 15.0155 3 15.0066 3 14.9976C3 14.9886 3 14.9797 3 14.9707C3 14.9617 3 14.9528 3 14.9438C3 14.9349 3 14.9259 3 14.917C3 14.9081 3 14.8991 3 14.8902C3 14.8813 3 14.8723 3 14.8634C3 14.8545 3 14.8456 3 14.8366C3 14.8277 3 14.8188 3 14.8099C3 14.801 3 14.7921 3 14.7832C3 14.7743 3 14.7654 3 14.7565C3 14.7476 3 14.7387 3 14.7298C3 14.721 3 14.7121 3 14.7032C3 14.6943 3 14.6855 3 14.6766C3 14.6677 3 14.6589 3 14.65C3 14.6411 3 14.6323 3 14.6234C3 14.6146 3 14.6057 3 14.5969C3 14.5881 3 14.5792 3 14.5704C3 14.5616 3 14.5527 3 14.5439C3 14.5351 3 14.5263 3 14.5175C3 14.5086 3 14.4998 3 14.491C3 14.4822 3 14.4734 3 14.4646C3 14.4558 3 14.447 3 14.4382C3 14.4295 3 14.4207 3 14.4119C3 14.4031 3 14.3943 3 14.3856C3 14.3768 3 14.368 3 14.3593C3 14.3505 3 14.3418 3 14.333C3 14.3243 3 14.3155 3 14.3068C3 14.298 3 14.2893 3 14.2805C3 14.2718 3 14.2631 3 14.2544C3 14.2456 3 14.2369 3 14.2282C3 14.2195 3 14.2108 3 14.2021C3 14.1934 3 14.1846 3 14.176C3 14.1673 3 14.1586 3 14.1499C3 14.1412 3 14.1325 3 14.1238C3 14.1151 3 14.1065 3 14.0978C3 14.0891 3 14.0805 3 14.0718C3 14.0631 3 14.0545 3 14.0458C3 14.0372 3 14.0285 3 14.0199C3 14.0113 3 14.0026 3 13.994C3 13.9854 3 13.9767 3 13.9681C3 13.9595 3 13.9509 3 13.9423C3 13.9336 3 13.925 3 13.9164C3 13.9078 3 13.8992 3 13.8906C3 13.882 3 13.8735 3 13.8649C3 13.8563 3 13.8477 3 13.8391C3 13.8306 3 13.822 3 13.8134C3 13.8049 3 13.7963 3 13.7878C3 13.7792 3 13.7707 3 13.7621C3 13.7536 3 13.745 3 13.7365C3 13.728 3 13.7194 3 13.7109C3 13.7024 3 13.6939 3 13.6853C3 13.6768 3 13.6683 3 13.6598C3 13.6513 3 13.6428 3 13.6343C3 13.6258 3 13.6173 3 13.6088C3 13.6004 3 13.5919 3 13.5834C3 13.5749 3 13.5665 3 13.558C3 13.5495 3 13.5411 3 13.5326C3 13.5242 3 13.5157 3 13.5073C3 13.4988 3 13.4904 3 13.482C3 13.4735 3 13.4651 3 13.4567C3 13.4483 3 13.4398 3 13.4314C3 13.423 3 13.4146 3 13.4062C3 13.3978 3 13.3894 3 13.381C3 13.3726 3 13.3642 3 13.3558C3 13.3475 3 13.3391 3 13.3307C3 13.3223 3 13.314 3 13.3056C3 13.2973 3 13.2889 3 13.2806C3 13.2722 3 13.2639 3 13.2555C3 13.2472 3 13.2389 3 13.2305C3 13.2222 3 13.2139 3 13.2056C3 13.1972 3 13.1889 3 13.1806C3 13.1723 3 13.164 3 13.1557C3 13.1474 3 13.1391 3 13.1308C3 13.1226 3 13.1143 3 13.106C3 13.0977 3 13.0895 3 13.0812C3 13.0729 3 13.0647 3 13.0564C3 13.0482 3 13.0399 3 13.0317C3 13.0234 3 13.0152 3 13.007C3 12.9987 3 12.9905 3 12.9823C3 12.9741 3 12.9659 3 12.9577C3 12.9494 3 12.9412 3 12.933C3 12.9248 3 12.9167 3 12.9085C3 12.9003 3 12.8921 3 12.8839C3 12.8758 3 12.8676 3 12.8594C3 12.8513 3 12.8431 3 12.8349C3 12.8268 3 12.8186 3 12.8105C3 12.8024 3 12.7942 3 12.7861C3 12.778 3 12.7698 3 12.7617C3 12.7536 3 12.7455 3 12.7374C3 12.7293 3 12.7212 3 12.7131C3 12.705 3 12.6969 3 12.6888C3 12.6807 3 12.6727 3 12.6646C3 12.6565 3 12.6485 3 12.6404C3 12.6323 3 12.6243 3 12.6162C3 12.6082 3 12.6001 3 12.5921C3 12.5841 3 12.576 3 12.568C3 12.56 3 12.552 3 12.5439C3 12.5359 3 12.5279 3 12.5199C3 12.5119 3 12.5039 3 12.4959C3 12.4879 3 12.48 3 12.472C3 12.464 3 12.456 3 12.4481C3 12.4401 3 12.4321 3 12.4242C3 12.4162 3 12.4083 3 12.4003C3 12.3924 3 12.3845 3 12.3765C3 12.3686 3 12.3607 3 12.3528C3 12.3448 3 12.3369 3 12.329C3 12.3211 3 12.3132 3 12.3053C3 12.2974 3 12.2895 3 12.2817C3 12.2738 3 12.2659 3 12.258C3 12.2502 3 12.2423 3 12.2344C3 12.2266 3 12.2187 3 12.2109C3 12.203 3 12.1952 3 12.1874C3 12.1795 3 12.1717 3 12.1639C3 12.1561 3 12.1483 3 12.1405C3 12.1326 3 12.1248 3 12.1171C3 12.1093 3 12.1015 3 12.0937C3 12.0859 3 12.0781 3 12.0704C3 12.0626 3 12.0548 3 12.0471C3 12.0393 3 12.0316 3 12.0238C3 12.0161 3 12.0083 3 12.0006C3 11.9929 3 11.9851 3 11.9774C3 11.9697 3 11.962 3 11.9543C3 11.9466 3 11.9389 3 11.9312C3 11.9235 3 11.9158 3 11.9081C3 11.9004 3 11.8928 3 11.8851C3 11.8774 3 11.8698 3 11.8621C3 11.8544 3 11.8468 3 11.8392C3 11.8315 3 11.8239 3 11.8162C3 11.8086 3 11.801 3 11.7934C3 11.7858 3 11.7782 3 11.7705C3 11.7629 3 11.7553 3 11.7478C3 11.7402 3 11.7326 3 11.725C3 11.7174 3 11.7099 3 11.7023C3 11.6947 3 11.6872 3 11.6796C3 11.6721 3 11.6645 3 11.657C3 11.6495 3 11.6419 3 11.6344C3 11.6269 3 11.6194 3 11.6118C3 11.6043 3 11.5968 3 11.5893C3 11.5818 3 11.5743 3 11.5669C3 11.5594 3 11.5519 3 11.5444C3 11.537 3 11.5295 3 11.522C3 11.5146 3 11.5071 3 11.4997C3 11.4922 3 11.4848 3 11.4774C3 11.4699 3 11.4625 3 11.4551C3 11.4477 3 11.4403 3 11.4329C3 11.4255 3 11.4181 3 11.4107C3 11.4033 3 11.3959 3 11.3885C3 11.3812 3 11.3738 3 11.3664C3 11.3591 3 11.3517 3 11.3444C3 11.337 3 11.3297 3 11.3223C3 11.315 3 11.3077 3 11.3004C3 11.293 3 11.2857 3 11.2784C3 11.2711 3 11.2638 3 11.2565C3 11.2492 3 11.2419 3 11.2347C3 11.2274 3 11.2201 3 11.2128C3 11.2056 3 11.1983 3 11.1911C3 11.1838 3 11.1766 3 11.1693C3 11.1621 3 11.1549 3 11.1477C3 11.1404 3 11.1332 3 11.126C3 11.1188 3 11.1116 3 11.1044C3 11.0972 3 11.09 3 11.0828C3 11.0757 3 11.0685 3 11.0613C3 11.0542 3 11.047 3 11.0399C3 11.0327 3 11.0256 3 11.0184C3 11.0113 3 11.0042 3 10.997H1C1 11.0042 1 11.0113 1 11.0184C1 11.0256 1 11.0327 1 11.0399C1 11.047 1 11.0542 1 11.0613C1 11.0685 1 11.0757 1 11.0828C1 11.09 1 11.0972 1 11.1044C1 11.1116 1 11.1188 1 11.126C1 11.1332 1 11.1404 1 11.1477C1 11.1549 1 11.1621 1 11.1693C1 11.1766 1 11.1838 1 11.1911C1 11.1983 1 11.2056 1 11.2128C1 11.2201 1 11.2274 1 11.2347C1 11.2419 1 11.2492 1 11.2565C1 11.2638 1 11.2711 1 11.2784C1 11.2857 1 11.293 1 11.3004C1 11.3077 1 11.315 1 11.3223C1 11.3297 1 11.337 1 11.3444C1 11.3517 1 11.3591 1 11.3664C1 11.3738 1 11.3812 1 11.3885C1 11.3959 1 11.4033 1 11.4107C1 11.4181 1 11.4255 1 11.4329C1 11.4403 1 11.4477 1 11.4551C1 11.4625 1 11.4699 1 11.4774C1 11.4848 1 11.4922 1 11.4997C1 11.5071 1 11.5146 1 11.522C1 11.5295 1 11.537 1 11.5444C1 11.5519 1 11.5594 1 11.5669C1 11.5743 1 11.5818 1 11.5893C1 11.5968 1 11.6043 1 11.6118C1 11.6194 1 11.6269 1 11.6344C1 11.6419 1 11.6495 1 11.657C1 11.6645 1 11.6721 1 11.6796C1 11.6872 1 11.6947 1 11.7023C1 11.7099 1 11.7174 1 11.725C1 11.7326 1 11.7402 1 11.7478C1 11.7553 1 11.7629 1 11.7705C1 11.7782 1 11.7858 1 11.7934C1 11.801 1 11.8086 1 11.8162C1 11.8239 1 11.8315 1 11.8392C1 11.8468 1 11.8544 1 11.8621C1 11.8698 1 11.8774 1 11.8851C1 11.8928 1 11.9004 1 11.9081C1 11.9158 1 11.9235 1 11.9312C1 11.9389 1 11.9466 1 11.9543C1 11.962 1 11.9697 1 11.9774C1 11.9851 1 11.9929 1 12.0006C1 12.0083 1 12.0161 1 12.0238C1 12.0316 1 12.0393 1 12.0471C1 12.0548 1 12.0626 1 12.0704C1 12.0781 1 12.0859 1 12.0937C1 12.1015 1 12.1093 1 12.1171C1 12.1248 1 12.1326 1 12.1405C1 12.1483 1 12.1561 1 12.1639C1 12.1717 1 12.1795 1 12.1874C1 12.1952 1 12.203 1 12.2109C1 12.2187 1 12.2266 1 12.2344C1 12.2423 1 12.2502 1 12.258C1 12.2659 1 12.2738 1 12.2817C1 12.2895 1 12.2974 1 12.3053C1 12.3132 1 12.3211 1 12.329C1 12.3369 1 12.3448 1 12.3528C1 12.3607 1 12.3686 1 12.3765C1 12.3845 1 12.3924 1 12.4003C1 12.4083 1 12.4162 1 12.4242C1 12.4321 1 12.4401 1 12.4481C1 12.456 1 12.464 1 12.472C1 12.48 1 12.4879 1 12.4959C1 12.5039 1 12.5119 1 12.5199C1 12.5279 1 12.5359 1 12.5439C1 12.552 1 12.56 1 12.568C1 12.576 1 12.5841 1 12.5921C1 12.6001 1 12.6082 1 12.6162C1 12.6243 1 12.6323 1 12.6404C1 12.6485 1 12.6565 1 12.6646C1 12.6727 1 12.6807 1 12.6888C1 12.6969 1 12.705 1 12.7131C1 12.7212 1 12.7293 1 12.7374C1 12.7455 1 12.7536 1 12.7617C1 12.7698 1 12.778 1 12.7861C1 12.7942 1 12.8024 1 12.8105C1 12.8186 1 12.8268 1 12.8349C1 12.8431 1 12.8513 1 12.8594C1 12.8676 1 12.8758 1 12.8839C1 12.8921 1 12.9003 1 12.9085C1 12.9167 1 12.9248 1 12.933C1 12.9412 1 12.9494 1 12.9577C1 12.9659 1 12.9741 1 12.9823C1 12.9905 1 12.9987 1 13.007C1 13.0152 1 13.0234 1 13.0317C1 13.0399 1 13.0482 1 13.0564C1 13.0647 1 13.0729 1 13.0812C1 13.0895 1 13.0977 1 13.106C1 13.1143 1 13.1226 1 13.1308C1 13.1391 1 13.1474 1 13.1557C1 13.164 1 13.1723 1 13.1806C1 13.1889 1 13.1972 1 13.2056C1 13.2139 1 13.2222 1 13.2305C1 13.2389 1 13.2472 1 13.2555C1 13.2639 1 13.2722 1 13.2806C1 13.2889 1 13.2973 1 13.3056C1 13.314 1 13.3223 1 13.3307C1 13.3391 1 13.3475 1 13.3558C1 13.3642 1 13.3726 1 13.381C1 13.3894 1 13.3978 1 13.4062C1 13.4146 1 13.423 1 13.4314C1 13.4398 1 13.4483 1 13.4567C1 13.4651 1 13.4735 1 13.482C1 13.4904 1 13.4988 1 13.5073C1 13.5157 1 13.5242 1 13.5326C1 13.5411 1 13.5495 1 13.558C1 13.5665 1 13.5749 1 13.5834C1 13.5919 1 13.6004 1 13.6088C1 13.6173 1 13.6258 1 13.6343C1 13.6428 1 13.6513 1 13.6598C1 13.6683 1 13.6768 1 13.6853C1 13.6939 1 13.7024 1 13.7109C1 13.7194 1 13.728 1 13.7365C1 13.745 1 13.7536 1 13.7621C1 13.7707 1 13.7792 1 13.7878C1 13.7963 1 13.8049 1 13.8134C1 13.822 1 13.8306 1 13.8391C1 13.8477 1 13.8563 1 13.8649C1 13.8735 1 13.882 1 13.8906C1 13.8992 1 13.9078 1 13.9164C1 13.925 1 13.9336 1 13.9423C1 13.9509 1 13.9595 1 13.9681C1 13.9767 1 13.9854 1 13.994C1 14.0026 1 14.0113 1 14.0199C1 14.0285 1 14.0372 1 14.0458C1 14.0545 1 14.0631 1 14.0718C1 14.0805 1 14.0891 1 14.0978C1 14.1065 1 14.1151 1 14.1238C1 14.1325 1 14.1412 1 14.1499C1 14.1586 1 14.1673 1 14.176C1 14.1846 1 14.1934 1 14.2021C1 14.2108 1 14.2195 1 14.2282C1 14.2369 1 14.2456 1 14.2544C1 14.2631 1 14.2718 1 14.2805C1 14.2893 1 14.298 1 14.3068C1 14.3155 1 14.3243 1 14.333C1 14.3418 1 14.3505 1 14.3593C1 14.368 1 14.3768 1 14.3856C1 14.3943 1 14.4031 1 14.4119C1 14.4207 1 14.4295 1 14.4382C1 14.447 1 14.4558 1 14.4646C1 14.4734 1 14.4822 1 14.491C1 14.4998 1 14.5086 1 14.5175C1 14.5263 1 14.5351 1 14.5439C1 14.5527 1 14.5616 1 14.5704C1 14.5792 1 14.5881 1 14.5969C1 14.6057 1 14.6146 1 14.6234C1 14.6323 1 14.6411 1 14.65C1 14.6589 1 14.6677 1 14.6766C1 14.6855 1 14.6943 1 14.7032C1 14.7121 1 14.721 1 14.7298C1 14.7387 1 14.7476 1 14.7565C1 14.7654 1 14.7743 1 14.7832C1 14.7921 1 14.801 1 14.8099C1 14.8188 1 14.8277 1 14.8366C1 14.8456 1 14.8545 1 14.8634C1 14.8723 1 14.8813 1 14.8902C1 14.8991 1 14.9081 1 14.917C1 14.9259 1 14.9349 1 14.9438C1 14.9528 1 14.9617 1 14.9707C1 14.9797 1 14.9886 1 14.9976C1 15.0066 1 15.0155 1 15.0245C1 15.0335 1 15.0424 1 15.0514C1 15.0604 1 15.0694 1 15.0784C1 15.0874 1 15.0964 1 15.1054C1 15.1144 1 15.1234 1 15.1324C1 15.1414 1 15.1504 1 15.1594C1 15.1684 1 15.1774 1 15.1865C1 15.1955 1 15.2045 1 15.2135C1 15.2226 1 15.2316 1 15.2406C1 15.2497 1 15.2587 1 15.2677C1 15.2768 1 15.2858 1 15.2949C1 15.3039 1 15.313 1 15.3221C1 15.3311 1 15.3402 1 15.3492C1 15.3583 1 15.3674 1 15.3765C1 15.3855 1 15.3946 1 15.4037C1 15.4128 1 15.4219 1 15.431C1 15.44 1 15.4491 1 15.4582C1 15.4673 1 15.4764 1 15.4855C1 15.4946 1 15.5037 1 15.5129C1 15.522 1 15.5311 1 15.5402C1 15.5493 1 15.5584 1 15.5676C1 15.5767 1 15.5858 1 15.595C1 15.6041 1 15.6132 1 15.6224C1 15.6315 1 15.6407 1 15.6498C1 15.659 1 15.6681 1 15.6773C1 15.6864 1 15.6956 1 15.7047C1 15.7139 1 15.7231 1 15.7322C1 15.7414 1 15.7506 1 15.7597C1 15.7689 1 15.7781 1 15.7873C1 15.7965 1 15.8057 1 15.8148C1 15.824 1 15.8332 1 15.8424C1 15.8516 1 15.8608 1 15.87C1 15.8792 1 15.8884 1 15.8976C1 15.9069 1 15.9161 1 15.9253C1 15.9345 1 15.9437 1 15.9529C1 15.9622 1 15.9714 1 15.9806C1 15.9899 1 15.9991 1 16.0083C1 16.0176 1 16.0268 1 16.0361C1 16.0453 1 16.0545 1 16.0638C1 16.073 1 16.0823 1 16.0916C1 16.1008 1 16.1101 1 16.1193C1 16.1286 1 16.1379 1 16.1471C1 16.1564 1 16.1657 1 16.1749C1 16.1842 1 16.1935 1 16.2028C1 16.2121 1 16.2214 1 16.2306C1 16.2399 1 16.2492 1 16.2585C1 16.2678 1 16.2771 1 16.2864C1 16.2957 1 16.305 1 16.3143C1 16.3236 1 16.3329 1 16.3423C1 16.3516 1 16.3609 1 16.3702C1 16.3795 1 16.3888 1 16.3982C1 16.4075 1 16.4168 1 16.4262C1 16.4355 1 16.4448 1 16.4542C1 16.4635 1 16.4728 1 16.4822C1 16.4915 1 16.5009 1 16.5102C1 16.5196 1 16.5289 1 16.5383C1 16.5476 1 16.557 1 16.5664C1 16.5757 1 16.5851 1 16.5945C1 16.6038 1 16.6132 1 16.6226C1 16.6319 1 16.6413 1 16.6507C1 16.6601 1 16.6694 1 16.6788C1 16.6882 1 16.6976 1 16.707C1 16.7164 1 16.7258 1 16.7352C1 16.7446 1 16.754 1 16.7634C1 16.7728 1 16.7822 1 16.7916C1 16.801 1 16.8104 1 16.8198C1 16.8292 1 16.8386 1 16.8481C1 16.8575 1 16.8669 1 16.8763C1 16.8857 1 16.8952 1 16.9046C1 16.914 1 16.9235 1 16.9329C1 16.9423 1 16.9518 1 16.9612C1 16.9706 1 16.9801 1 16.9895C1 16.999 1 17.0084 1 17.0179C1 17.0273 1 17.0368 1 17.0462C1 17.0557 1 17.0651 1 17.0746C1 17.0841 1 17.0935 1 17.103C1 17.1124 1 17.1219 1 17.1314C1 17.1409 1 17.1503 1 17.1598C1 17.1693 1 17.1788 1 17.1882C1 17.1977 1 17.2072 1 17.2167C1 17.2262 1 17.2357 1 17.2451C1 17.2546 1 17.2641 1 17.2736C1 17.2831 1 17.2926 1 17.3021C1 17.3116 1 17.3211 1 17.3306C1 17.3401 1 17.3496 1 17.3591C1 17.3687 1 17.3782 1 17.3877C1 17.3972 1 17.4067 1 17.4162C1 17.4257 1 17.4353 1 17.4448C1 17.4543 1 17.4638 1 17.4734C1 17.4829 1 17.4924 1 17.502C1 17.5115 1 17.521 1 17.5306C1 17.5401 1 17.5496 1 17.5592C1 17.5687 1 17.5783 1 17.5878C1 17.5974 1 17.6069 1 17.6165C1 17.626 1 17.6356 1 17.6451C1 17.6547 1 17.6642 1 17.6738C1 17.6834 1 17.6929 1 17.7025C1 17.712 1 17.7216 1 17.7312C1 17.7407 1 17.7503 1 17.7599C1 17.7695 1 17.779 1 17.7886C1 17.7982 1 17.8078 1 17.8173C1 17.8269 1 17.8365 1 17.8461C1 17.8557 1 17.8653 1 17.8748C1 17.8844 1 17.894 1 17.9036C1 17.9132 1 17.9228 1 17.9324C1 17.942 1 17.9516 1 17.9612C1 17.9708 1 17.9804 1 17.99C1 17.9996 1 18.0092 1 18.0188C1 18.0284 1 18.038 1 18.0477C1 18.0573 1 18.0669 1 18.0765C1 18.0861 1 18.0957 1 18.1053C1 18.115 1 18.1246 1 18.1342C1 18.1438 1 18.1535 1 18.1631C1 18.1727 1 18.1823 1 18.192C1 18.2016 1 18.2112 1 18.2209C1 18.2305 1 18.2401 1 18.2498C1 18.2594 1 18.2691 1 18.2787C1 18.2883 1 18.298 1 18.3076C1 18.3173 1 18.3269 1 18.3366C1 18.3462 1 18.3559 1 18.3655C1 18.3752 1 18.3848 1 18.3945C1 18.4041 1 18.4138 1 18.4234C1 18.4331 1 18.4428 1 18.4524C1 18.4621 1 18.4717 1 18.4814C1 18.4911 1 18.5007 1 18.5104C1 18.5201 1 18.5297 1 18.5394C1 18.5491 1 18.5588 1 18.5684C1 18.5781 1 18.5878 1 18.5975C1 18.6071 1 18.6168 1 18.6265C1 18.6362 1 18.6459 1 18.6555C1 18.6652 1 18.6749 1 18.6846C1 18.6943 1 18.704 1 18.7137C1 18.7234 1 18.733 1 18.7427C1 18.7524 1 18.7621 1 18.7718C1 18.7815 1 18.7912 1 18.8009C1 18.8106 1 18.8203 1 18.83C1 18.8397 1 18.8494 1 18.8591C1 18.8688 1 18.8785 1 18.8882C1 18.8979 1 18.9076 1 18.9173C1 18.9271 1 18.9368 1 18.9465C1 18.9562 1 18.9659 1 18.9756C1 18.9853 1 18.995 1 19.0048C1 19.0145 1 19.0242 1 19.0339C1 19.0436 1 19.0534 1 19.0631C1 19.0728 1 19.0825 1 19.0922C1 19.102 1 19.1117 1 19.1214C1 19.1311 1 19.1409 1 19.1506C1 19.1603 1 19.1701 1 19.1798C1 19.1895 1 19.1993 1 19.209C1 19.2187 1 19.2285 1 19.2382C1 19.2479 1 19.2577 1 19.2674C1 19.2771 1 19.2869 1 19.2966C1 19.3064 1 19.3161 1 19.3258C1 19.3356 1 19.3453 1 19.3551C1 19.3648 1 19.3746 1 19.3843C1 19.394 1 19.4038 1 19.4135C1 19.4233 1 19.433 1 19.4428C1 19.4525 1 19.4623 1 19.472C1 19.4818 1 19.4915 1 19.5013C1 19.511 1 19.5208 1 19.5306C1 19.5403 1 19.5501 1 19.5598C1 19.5696 1 19.5793 1 19.5891C1 19.5989 1 19.6086 1 19.6184C1 19.6281 1 19.6379 1 19.6477C1 19.6574 1 19.6672 1 19.677C1 19.6867 1 19.6965 1 19.7063C1 19.716 1 19.7258 1 19.7356C1 19.7453 1 19.7551 1 19.7649C1 19.7746 1 19.7844 1 19.7942C1 19.8039 1 19.8137 1 19.8235C1 19.8333 1 19.843 1 19.8528C1 19.8626 1 19.8723 1 19.8821C1 19.8919 1 19.9017 1 19.9114C1 19.9212 1 19.931 1 19.9408C1 19.9506 1 19.9603 1 19.9701C1 19.9799 1 19.9897 1 19.9994C1 20.0092 1 20.019 1 20.0288C1 20.0386 1 20.0484 1 20.0581C1 20.0679 1 20.0777 1 20.0875C1 20.0973 1 20.107 1 20.1168C1 20.1266 1 20.1364 1 20.1462C1 20.156 1 20.1658 1 20.1755C1 20.1853 1 20.1951 1 20.2049C1 20.2147 1 20.2245 1 20.2343C1 20.2441 1 20.2538 1 20.2636C1 20.2734 1 20.2832 1 20.293C1 20.3028 1 20.3126 1 20.3224C1 20.3322 1 20.342 1 20.3517C1 20.3615 1 20.3713 1 20.3811C1 20.3909 1 20.4007 1 20.4105C1 20.4203 1 20.4301 1 20.4399C1 20.4497 1 20.4595 1 20.4693C1 20.479 1 20.4888 1 20.4986C1 20.5084 1 20.5182 1 20.528C1 20.5378 1 20.5476 1 20.5574C1 20.5672 1 20.577 1 20.5868C1 20.5966 1 20.6064 1 20.6162C1 20.626 1 20.6358 1 20.6456C1 20.6554 1 20.6652 1 20.675C1 20.6848 1 20.6946 1 20.7044C1 20.7142 1 20.7239 1 20.7337C1 20.7435 1 20.7533 1 20.7631C1 20.7729 1 20.7827 1 20.7925C1 20.8023 1 20.8121 1 20.8219C1 20.8317 1 20.8415 1 20.8513C1 20.8611 1 20.8709 1 20.8807C1 20.8905 1 20.9003 1 20.9101C1 20.9199 1 20.9297 1 20.9395C1 20.9493 1 20.9591 1 20.9689C1 20.9787 1 20.9885 1 20.9983C1 21.0081 1 21.0179 1 21.0277C1 21.0375 1 21.0473 1 21.0571C1 21.0669 1 21.0767 1 21.0865C1 21.0963 1 21.1061 1 21.1159C1 21.1257 1 21.1355 1 21.1453C1 21.1551 1 21.1649 1 21.1746C1 21.1844 1 21.1942 1 21.204C1 21.2138 1 21.2236 1 21.2334C1 21.2432 1 21.253 1 21.2628C1 21.2726 1 21.2824 1 21.2922C1 21.302 1 21.3118 1 21.3216C1 21.3314 1 21.3412 1 21.351C1 21.3608 1 21.3706 1 21.3803C1 21.3901 1 21.3999 1 21.4097C1 21.4195 1 21.4293 1 21.4391C1 21.4489 1 21.4587 1 21.4685C1 21.4783 1 21.4881 1 21.4978C1 21.5076 1 21.5174 1 21.5272C1 21.537 1 21.5468 1 21.5566C1 21.5664 1 21.5762 1 21.5859C1 21.5957 1 21.6055 1 21.6153C1 21.6251 1 21.6349 1 21.6447C1 21.6545 1 21.6642 1 21.674C1 21.6838 1 21.6936 1 21.7034C1 21.7132 1 21.7229 1 21.7327C1 21.7425 1 21.7523 1 21.7621C1 21.7719 1 21.7816 1 21.7914C1 21.8012 1 21.811 1 21.8208C1 21.8305 1 21.8403 1 21.8501C1 21.8599 1 21.8696 1 21.8794C1 21.8892 1 21.899 1 21.9088C1 21.9185 1 21.9283 1 21.9381C1 21.9479 1 21.9576 1 21.9674C1 21.9772 1 21.9869 1 21.9967C1 22.0065 1 22.0163 1 22.026C1 22.0358 1 22.0456 1 22.0553C1 22.0651 1 22.0749 1 22.0846C1 22.0944 1 22.1042 1 22.1139C1 22.1237 1 22.1335 1 22.1432C1 22.153 1 22.1628 1 22.1725C1 22.1823 1 22.192 1 22.2018C1 22.2116 1 22.2213 1 22.2311C1 22.2408 1 22.2506 1 22.2604C1 22.2701 1 22.2799 1 22.2896C1 22.2994 1 22.3091 1 22.3189C1 22.3286 1 22.3384 1 22.3481C1 22.3579 1 22.3676 1 22.3774C1 22.3871 1 22.3969 1 22.4066C1 22.4164 1 22.4261 1 22.4359C1 22.4456 1 22.4554 1 22.4651C1 22.4748 1 22.4846 1 22.4943C1 22.5041 1 22.5138 1 22.5235C1 22.5333 1 22.543 1 22.5528C1 22.5625 1 22.5722 1 22.582C1 22.5917 1 22.6014 1 22.6112C1 22.6209 1 22.6306 1 22.6404C1 22.6501 1 22.6598 1 22.6696C1 22.6793 1 22.689 1 22.6987C1 22.7085 1 22.7182 1 22.7279C1 22.7376 1 22.7473 1 22.7571C1 22.7668 1 22.7765 1 22.7862C1 22.7959 1 22.8057 1 22.8154C1 22.8251 1 22.8348 1 22.8445C1 22.8542 1 22.8639 1 22.8737C1 22.8834 1 22.8931 1 22.9028C1 22.9125 1 22.9222 1 22.9319C1 22.9416 1 22.9513 1 22.961C1 22.9707 1 22.9804 1 22.9901C1 22.9998 1 23.0095 1 23.0192C1 23.0289 1 23.0386 1 23.0483C1 23.058 1 23.0677 1 23.0774C1 23.0871 1 23.0968 1 23.1064C1 23.1161 1 23.1258 1 23.1355C1 23.1452 1 23.1549 1 23.1646C1 23.1742 1 23.1839 1 23.1936C1 23.2033 1 23.213 1 23.2226C1 23.2323 1 23.242 1 23.2517C1 23.2613 1 23.271 1 23.2807C1 23.2903 1 23.3 1 23.3097C1 23.3193 1 23.329 1 23.3387C1 23.3483 1 23.358 1 23.3677C1 23.3773 1 23.387 1 23.3966C1 23.4063 1 23.4159 1 23.4256C1 23.4353 1 23.4449 1 23.4546C1 23.4642 1 23.4739 1 23.4835C1 23.4931 1 23.5028 1 23.5124C1 23.5221 1 23.5317 1 23.5414C1 23.551 1 23.5606 1 23.5703C1 23.5799 1 23.5895 1 23.5992C1 23.6088 1 23.6184 1 23.6281C1 23.6377 1 23.6473 1 23.657C1 23.6666 1 23.6762 1 23.6858C1 23.6954 1 23.7051 1 23.7147C1 23.7243 1 23.7339 1 23.7435C1 23.7531 1 23.7628 1 23.7724C1 23.782 1 23.7916 1 23.8012C1 23.8108 1 23.8204 1 23.83C1 23.8396 1 23.8492 1 23.8588C1 23.8684 1 23.878 1 23.8876C1 23.8972 1 23.9068 1 23.9164C1 23.926 1 23.9356 1 23.9452C1 23.9547 1 23.9643 1 23.9739C1 23.9835 1 23.9931 1 24.0027C1 24.0122 1 24.0218 1 24.0314C1 24.041 1 24.0505 1 24.0601C1 24.0697 1 24.0792 1 24.0888C1 24.0984 1 24.1079 1 24.1175C1 24.1271 1 24.1366 1 24.1462C1 24.1557 1 24.1653 1 24.1748C1 24.1844 1 24.1939 1 24.2035C1 24.213 1 24.2226 1 24.2321C1 24.2417 1 24.2512 1 24.2608C1 24.2703 1 24.2798 1 24.2894C1 24.2989 1 24.3084 1 24.318C1 24.3275 1 24.337 1 24.3466C1 24.3561 1 24.3656 1 24.3751C1 24.3847 1 24.3942 1 24.4037C1 24.4132 1 24.4227 1 24.4322C1 24.4418 1 24.4513 1 24.4608C1 24.4703 1 24.4798 1 24.4893C1 24.4988 1 24.5083 1 24.5178C1 24.5273 1 24.5368 1 24.5463C1 24.5558 1 24.5653 1 24.5747C1 24.5842 1 24.5937 1 24.6032C1 24.6127 1 24.6222 1 24.6316C1 24.6411 1 24.6506 1 24.6601C1 24.6695 1 24.679 1 24.6885C1 24.698 1 24.7074 1 24.7169C1 24.7263 1 24.7358 1 24.7453C1 24.7547 1 24.7642 1 24.7736C1 24.7831 1 24.7925 1 24.802C1 24.8114 1 24.8209 1 24.8303C1 24.8398 1 24.8492 1 24.8586C1 24.8681 1 24.8775 1 24.8869C1 24.8964 1 24.9058 1 24.9152C1 24.9247 1 24.9341 1 24.9435C1 24.9529 1 24.9623 1 24.9718C1 24.9812 1 24.9906 1 25H3ZM3 36V33H1L1 36H3ZM6 39C4.34315 39 3 37.6569 3 36H1C1 38.7614 3.23858 41 6 41V39ZM39 36C39 37.6569 37.6569 39 36 39V41C38.7614 41 41 38.7614 41 36H39ZM36 8C37.6569 8 39 9.34315 39 11H41C41 8.23858 38.7614 6 36 6V8ZM6 6C3.23954 6 1 8.23465 1 10.997H3C3 9.34115 4.34218 8 6 8V6Z" fill="url(#paint0_linear_305_164)"/>
<path d="M40 12V11C40 8.79086 38.2092 7 36 7H5.97474C3.77956 7 2.00001 8.77954 2 10.9747C1.99999 13.1895 3.81029 14.9771 6.02494 14.9492L33.6666 14.6L36.1999 14.6C38.4091 14.6 40 16.2909 40 18.5V22" stroke="#F97150" stroke-width="2"/>
<path d="M10.8984 2.99948L8 10.8667H31.3333L12.2409 2.4305C11.7131 2.19726 11.0979 2.45798 10.8984 2.99948Z" fill="white"/>
<path d="M8 10.8667L7.06166 10.521C6.94863 10.8278 6.99271 11.1704 7.17972 11.4386C7.36673 11.7068 7.67304 11.8667 8 11.8667V10.8667ZM10.8984 2.99948L9.96009 2.65377L9.96009 2.65377L10.8984 2.99948ZM12.2409 2.4305L12.6451 1.51581V1.51581L12.2409 2.4305ZM31.3333 10.8667V11.8667C31.806 11.8667 32.2141 11.5357 32.3118 11.0732C32.4094 10.6107 32.1698 10.143 31.7375 9.95198L31.3333 10.8667ZM8.93834 11.2124L11.8368 3.34518L9.96009 2.65377L7.06166 10.521L8.93834 11.2124ZM11.8368 3.34518L30.9292 11.7813L31.7375 9.95198L12.6451 1.51581L11.8368 3.34518ZM31.3333 9.86666H8V11.8667H31.3333V9.86666ZM11.8368 3.34518H11.8368L12.6451 1.51581C11.5894 1.04934 10.3591 1.57077 9.96009 2.65377L11.8368 3.34518Z" fill="#F97150"/>
<path d="M33.6142 21.6002H43V30.8669C43 31.4191 42.5523 31.8669 42 31.8669H33.6142C33.349 31.8669 33.0946 31.7615 32.9071 31.574L28.7738 27.4406C28.3832 27.0501 28.3832 26.4169 28.7738 26.0264L32.9071 21.8931C33.0946 21.7056 33.349 21.6002 33.6142 21.6002Z" fill="white"/>
<path d="M43 21.6002H33.6142C33.349 21.6002 33.0946 21.7056 32.9071 21.8931L28.7738 26.0264C28.3832 26.4169 28.3832 27.0501 28.7738 27.4406L32.9071 31.574C33.0946 31.7615 33.349 31.8669 33.6142 31.8669H42C42.5523 31.8669 43 31.4191 43 30.8669V21.6002ZM43 21.6002V21.6002C43 20.827 42.3732 20.2002 41.6 20.2002H40.6666" stroke="url(#paint1_linear_305_164)" stroke-width="2"/>
<circle cx="35.0666" cy="26.7334" r="1.86667" fill="#F97150"/>
<circle cx="2" cy="29" r="1" fill="#FE9067"/>
<defs>
<linearGradient id="paint0_linear_305_164" x1="21" y1="7" x2="21" y2="40" gradientUnits="userSpaceOnUse">
<stop stop-color="#F97150"/>
<stop offset="1" stop-color="#FF986C"/>
</linearGradient>
<linearGradient id="paint1_linear_305_164" x1="35.5333" y1="20.2002" x2="35.5333" y2="31.8669" gradientUnits="userSpaceOnUse">
<stop stop-color="#F97150"/>
<stop offset="1" stop-color="#FF976B"/>
</linearGradient>
</defs>
</svg>
